<svg version="1.2" xmlns="http://www.w3.org/2000/svg" viewBox="0 0 190 234" width="190" height="234"><defs><clipPath clipPathUnits="userSpaceOnUse" id="cp1"><path d="m-935-5959h1440v6544h-1440z"/></clipPath></defs><style>.a{fill:#fdb235}</style><g clip-path="url(#cp1)"><path class="a" d="m136.2 147.3c-2.3-1.2-5.1-1.4-7.6-0.6-2.5 0.7-4.7 2.4-6 4.7q-1.5 2.5-3.1 4.9-2.8 4.3-6 8.2c-4 5-9.8 8.1-16.1 8.7-6.3 0.7-12.6-1.2-17.5-5.2q-1.9-1.6-3.5-3.5-3.1-3.8-5.9-8.1c-9.7-14.9-16.4-31.5-19.7-48.9-1.9-9.6-3.2-19.3-3.7-29-0.3-6.3 1.6-12.5 5.4-17.4 3.8-5 9.2-8.5 15.4-9.8h0.3q13.3-2.8 26.9-3.8 13.5 0.9 26.8 3.7h0.3c6.1 1.4 11.5 4.9 15.3 9.8 3.8 5 5.7 11.2 5.4 17.5 0 1.9 0 3.8-0.4 5.8-0.1 1.4 0 2.8 0.4 4.1 0.4 1.3 1.1 2.5 2 3.6 0.9 1.1 2 1.9 3.2 2.6 1.2 0.6 2.6 1 3.9 1.1l25.5 2c1.4 0.1 2.8 0 4.1-0.5 1.3-0.4 2.5-1 3.5-1.9 1.1-0.9 2-2 2.6-3.2 0.6-1.3 1-2.6 1.1-4 1.2-15 1.1-30-0.3-45-0.4-3.5-1.4-6.9-3.1-10-1.7-3.1-4-5.8-6.7-8-23.9-18.9-67.6-23.1-80.2-24.1q-3.5-0.3-7 0c-12.6 1-56.3 5.2-80.2 24.1-2.7 2.2-5 4.9-6.7 8-1.7 3.1-2.7 6.5-3.1 10-3.1 31.7-6 135.9 81.8 187.1 3.6 2.1 7.7 3.2 11.9 3.2 4.2 0 8.3-1.1 12-3.2 23.4-13.7 42.9-33.3 56.4-56.8 0.7-1.2 1.2-2.5 1.4-3.9 0.2-1.3 0.1-2.7-0.3-4-0.3-1.4-0.9-2.6-1.8-3.7-0.8-1.1-1.8-2-3-2.7l-0.7-0.4z"/></g></svg>