<svg version="1.2" xmlns="http://www.w3.org/2000/svg" viewBox="0 0 12 13" width="12" height="13"><defs><clipPath clipPathUnits="userSpaceOnUse" id="cp1"><path d="m-268-4830h1440v6544h-1440z"/></clipPath></defs><style>.a{fill:#ff61f6}</style><g clip-path="url(#cp1)"><path class="a" d="m11 0.9l-3.3 5.4 3.5 5.8q0 0.1 0 0.1c0 0.1-0.1 0-0.1 0h-2.5c-0.2 0-0.3 0-0.4-0.1q-0.4-0.7-0.7-1.3-0.3-0.7-0.7-1.4-0.4-0.7-0.8-1.4h-0.1q-0.3 0.7-0.7 1.4-0.4 0.7-0.7 1.4-0.4 0.7-0.8 1.3c0 0.2-0.1 0.2-0.2 0.2h-2.5c0 0 0 0 0-0.1q0 0 0-0.1l3.4-5.6-3.3-5.6q-0.1-0.1 0-0.1 0 0 0.1 0h2.5q0 0 0.1 0 0.1 0 0.1 0.1 0.3 0.7 0.7 1.4 0.4 0.7 0.8 1.4 0.4 0.7 0.7 1.4h0.1q0.3-0.8 0.7-1.4 0.3-0.7 0.7-1.4 0.4-0.7 0.8-1.4 0-0.1 0-0.1 0.1 0 0.2 0h2.3q0.1 0 0.1 0c0 0.1 0 0.1 0 0.1z"/></g></svg>