<svg version="1.2" xmlns="http://www.w3.org/2000/svg" viewBox="0 0 9 14" width="9" height="14"><defs><clipPath clipPathUnits="userSpaceOnUse" id="cp1"><path d="m-279-4829h1440v6544h-1440z"/></clipPath></defs><style>.a{fill:#ff61f6}</style><g clip-path="url(#cp1)"><path fill-rule="evenodd" class="a" d="m5 13.5c-0.8 0-1.6-0.2-2.3-0.5-0.7-0.3-1.3-0.9-1.7-1.5q-0.6-1-0.6-2.5c0-0.8 0.2-1.6 0.6-2.3 0.4-0.7 1-1.3 1.8-1.7q1.1-0.6 2.7-0.6 0.1 0 0.3 0 0.1 0 0.3 0v-3.5q0-0.1 0.1-0.1h2.2q0.1 0 0.1 0.1 0 0 0 0v10.4q0 0.3 0.1 0.7 0 0.3 0 0.6 0 0.1-0.1 0.2-0.9 0.4-1.8 0.5-0.8 0.2-1.7 0.2zm1.1-2.2v-4.8q-0.2-0.1-0.3-0.1-0.2 0-0.4 0-0.6 0-1.2 0.3-0.6 0.3-0.9 0.8-0.4 0.5-0.4 1.4 0 0.6 0.2 1.1 0.2 0.4 0.5 0.8 0.3 0.3 0.7 0.4 0.5 0.2 0.9 0.2 0.3 0 0.5-0.1 0.2 0.1 0.4 0z"/></g></svg>